<?xml version="1.0" standalone="no"?><!DOCTYPE svg PUBLIC "-//W3C//DTD SVG 1.1//EN" "http://www.w3.org/Graphics/SVG/1.1/DTD/svg11.dtd"><svg t="1595233534806" class="icon" viewBox="0 0 1025 1024" version="1.1" xmlns="http://www.w3.org/2000/svg" p-id="4501" xmlns:xlink="http://www.w3.org/1999/xlink" width="200.1953125" height="200"><defs><style type="text/css"></style></defs><path d="M855.998592 409.8281c-18.925727-44.744613-46.013085-84.92416-80.511638-119.422712-34.498552-34.497529-74.678099-61.58591-119.421688-80.511638-46.339673-19.599379-95.546974-29.53728-146.259242-29.53728s-99.920593 9.937901-146.259242 29.53728c-44.743589 18.924704-84.923136 46.013085-119.421688 80.511638-34.497529 34.498552-61.584886 74.678099-80.511638 119.422712-19.599379 46.337626-29.53728 95.546974-29.53728 146.258218s9.937901 99.920593 29.53728 146.258218c18.925727 44.744613 46.013085 84.92416 80.511638 119.422712 34.498552 34.497529 74.678099 61.58591 119.421688 80.511638 46.339673 19.599379 95.546974 29.53728 146.259242 29.53728s99.920593-9.937901 146.259242-29.53728c44.743589-18.924704 84.923136-46.013085 119.421688-80.511638 34.497529-34.498552 61.584886-74.678099 80.511638-119.422712 19.599379-46.337626 29.53728-95.546974 29.53728-146.258218S875.596948 456.165726 855.998592 409.8281zM509.805001 880.626814c-178.952858 0-324.540496-145.588662-324.540496-324.540496s145.587638-324.540496 324.540496-324.540496 324.540496 145.588662 324.540496 324.540496S688.757858 880.626814 509.805001 880.626814z" p-id="4502" fill="#ffffff"></path><path d="M686.727689 346.294947l-128.926527 128.925503c-12.813719-6.948443-27.481516-10.899237-43.054341-10.899237-49.96388 0-90.612321 40.648441-90.612321 90.612321s40.648441 90.612321 90.612321 90.612321c49.964903 0 90.613344-40.648441 90.613344-90.612321 0-15.815462-4.077744-30.695183-11.22992-43.650185l128.793435-128.792411c9.995233-9.995233 9.995233-26.200758 0-36.195991C712.930494 336.299714 696.723945 336.300737 686.727689 346.294947zM514.747844 614.833267c-33.028394 0-59.898709-26.870315-59.898709-59.898709s26.870315-59.898709 59.898709-59.898709c33.029418 0 59.899733 26.870315 59.899733 59.898709S547.776239 614.833267 514.747844 614.833267z" p-id="4503" fill="#ffffff"></path><path d="M410.326684 143.373186l192.471966 0c14.135428 0 25.594676-11.459248 25.594676-25.594676s-11.459248-25.594676-25.594676-25.594676l-192.471966 0c-14.135428 0-25.594676 11.459248-25.594676 25.594676S396.19228 143.373186 410.326684 143.373186z" p-id="4504" fill="#ffffff"></path></svg>