<?xml version="1.0" standalone="no"?><!DOCTYPE svg PUBLIC "-//W3C//DTD SVG 1.1//EN" "http://www.w3.org/Graphics/SVG/1.1/DTD/svg11.dtd"><svg t="1594884061762" class="icon" viewBox="0 0 1024 1024" version="1.1" xmlns="http://www.w3.org/2000/svg" p-id="4678" xmlns:xlink="http://www.w3.org/1999/xlink" width="200" height="200"><defs><style type="text/css"></style></defs><path d="M584.533333 469.333333 226.133333 469.333333c-10.666667 12.8-21.333333 27.733333-27.733333 42.666667l418.133333 0C605.866667 497.066667 597.333333 482.133333 584.533333 469.333333zM631.466667 554.666667 179.2 554.666667c-4.266667 12.8-6.4 27.733333-8.533333 42.666667l467.2 0C637.866667 582.4 635.733333 567.466667 631.466667 554.666667zM405.333333 853.333333c49.066667 0 96-17.066667 134.4-42.666667L270.933333 810.666667C309.333333 836.266667 356.266667 853.333333 405.333333 853.333333zM405.333333 384c-49.066667 0-96 17.066667-134.4 42.666667l268.8 0C501.333333 401.066667 454.4 384 405.333333 384zM226.133333 768l360.533333 0c10.666667-12.8 21.333333-27.733333 27.733333-42.666667L196.266667 725.333333C204.8 740.266667 213.333333 755.2 226.133333 768zM853.333333 725.333333c-12.8 0-21.333333 8.533333-21.333333 21.333333 0 12.8 8.533333 21.333333 21.333333 21.333333s21.333333-8.533333 21.333333-21.333333C874.666667 733.866667 866.133333 725.333333 853.333333 725.333333zM853.333333 426.666667c-23.466667 0-42.666667 19.2-42.666667 42.666667s19.2 42.666667 42.666667 42.666667 42.666667-19.2 42.666667-42.666667S876.8 426.666667 853.333333 426.666667zM896 256 256 256 256 166.4c25.6-8.533333 42.666667-32 42.666667-59.733333 0-36.266667-27.733333-64-64-64S170.666667 70.4 170.666667 106.666667c0 27.733333 17.066667 51.2 42.666667 59.733333L213.333333 256 128 256c-46.933333 0-85.333333 38.4-85.333333 85.333333l0 554.666667c0 46.933333 38.4 85.333333 85.333333 85.333333l768 0c46.933333 0 85.333333-38.4 85.333333-85.333333L981.333333 341.333333C981.333333 294.4 942.933333 256 896 256zM725.333333 938.666667 128 938.666667c-23.466667 0-42.666667-19.2-42.666667-42.666667L85.333333 341.333333c0-23.466667 19.2-42.666667 42.666667-42.666667l597.333333 0L725.333333 938.666667zM938.666667 896c0 23.466667-19.2 42.666667-42.666667 42.666667l-128 0L768 298.666667l128 0c23.466667 0 42.666667 19.2 42.666667 42.666667L938.666667 896zM853.333333 597.333333c-12.8 0-21.333333 8.533333-21.333333 21.333333 0 12.8 8.533333 21.333333 21.333333 21.333333s21.333333-8.533333 21.333333-21.333333C874.666667 605.866667 866.133333 597.333333 853.333333 597.333333zM631.466667 682.666667c4.266667-12.8 6.4-27.733333 8.533333-42.666667L172.8 640c2.133333 14.933333 4.266667 29.866667 8.533333 42.666667L631.466667 682.666667z" fill="#647484" p-id="4679"></path></svg>