<?xml version="1.0" standalone="no"?><!DOCTYPE svg PUBLIC "-//W3C//DTD SVG 1.1//EN" "http://www.w3.org/Graphics/SVG/1.1/DTD/svg11.dtd"><svg t="1595232534882" class="icon" viewBox="0 0 1024 1024" version="1.1" xmlns="http://www.w3.org/2000/svg" p-id="3486" xmlns:xlink="http://www.w3.org/1999/xlink" width="200" height="200"><defs><style type="text/css"></style></defs><path d="M512 512m-512 0a512 512 0 1 0 1024 0 512 512 0 1 0-1024 0Z" fill="#FDEBED" p-id="3487"></path><path d="M652.8 729.6H371.2c-28.16 0-51.2-23.04-51.2-51.2V512c0-28.16 23.04-51.2 51.2-51.2h12.8v-38.4c0-70.4 57.6-128 128-128s128 57.6 128 128v38.4h12.8c28.16 0 51.2 23.04 51.2 51.2v166.4c0 28.16-23.04 51.2-51.2 51.2zM512 320c-56.32 0-102.4 46.08-102.4 102.4v38.4h204.8v-38.4c0-56.32-46.08-102.4-102.4-102.4z" fill="#D56C68" p-id="3488" data-spm-anchor-id="a313x.7781069.0.i13" class=""></path></svg>