<?xml version="1.0" standalone="no"?><!DOCTYPE svg PUBLIC "-//W3C//DTD SVG 1.1//EN" "http://www.w3.org/Graphics/SVG/1.1/DTD/svg11.dtd"><svg t="1600064640692" class="icon" viewBox="0 0 1024 1024" version="1.1" xmlns="http://www.w3.org/2000/svg" p-id="1404" xmlns:xlink="http://www.w3.org/1999/xlink" width="200" height="200"><defs><style type="text/css"></style></defs><path d="M334.50666667 960.32H179.41333333C116.26666667 960.32 64.96 909.01333333 64.96 845.86666667V690.88c0-63.14666667 51.30666667-114.45333333 114.45333333-114.45333333h154.98666667c63.14666667 0 114.45333333 51.30666667 114.45333333 114.45333333V845.86666667c0.10666667 63.14666667-51.30666667 114.45333333-114.34666666 114.45333333zM179.41333333 629.22666667c-34.02666667 0-61.65333333 27.62666667-61.65333333 61.65333333V845.86666667c0 34.02666667 27.62666667 61.65333333 61.65333333 61.65333333h154.98666667c34.02666667 0 61.65333333-27.62666667 61.65333333-61.65333333V690.88c0-34.02666667-27.62666667-61.65333333-61.65333333-61.65333333H179.41333333zM814.61333333 960.32H659.52C596.48 960.32 545.06666667 909.01333333 545.06666667 845.86666667V690.88c0-63.14666667 51.30666667-114.45333333 114.45333333-114.45333333h154.98666667c63.14666667 0 114.45333333 51.30666667 114.45333333 114.45333333V845.86666667c0.10666667 63.14666667-51.30666667 114.45333333-114.34666667 114.45333333zM659.52 629.22666667c-34.02666667 0-61.65333333 27.62666667-61.65333333 61.65333333V845.86666667c0 34.02666667 27.62666667 61.65333333 61.65333333 61.65333333h154.98666667c34.02666667 0 61.65333333-27.62666667 61.65333333-61.65333333V690.88c0-34.02666667-27.62666667-61.65333333-61.65333333-61.65333333H659.52zM334.50666667 480.21333333H179.41333333c-63.14666667 0-114.45333333-51.30666667-114.45333333-114.45333333V210.77333333c0-63.14666667 51.30666667-114.45333333 114.45333333-114.45333333h154.98666667c63.14666667 0 114.45333333 51.30666667 114.45333333 114.45333333v154.98666667c0.10666667 63.14666667-51.30666667 114.45333333-114.34666666 114.45333333zM179.41333333 149.12c-34.02666667 0-61.65333333 27.62666667-61.65333333 61.65333333v154.98666667c0 34.02666667 27.62666667 61.65333333 61.65333333 61.65333333h154.98666667c34.02666667 0 61.65333333-27.62666667 61.65333333-61.65333333V210.77333333c0-34.02666667-27.62666667-61.65333333-61.65333333-61.65333333H179.41333333zM737.06666667 512.21333333c-29.33333333 0-58.66666667-11.09333333-80.96-33.49333333L546.56 369.17333333c-44.58666667-44.69333333-44.58666667-117.22666667 0-161.92l109.65333333-109.65333333c21.65333333-21.65333333 50.34666667-33.49333333 80.96-33.49333333 30.61333333 0 59.30666667 11.94666667 80.96 33.49333333l109.65333334 109.65333333c21.65333333 21.65333333 33.49333333 50.34666667 33.49333333 80.96s-11.94666667 59.30666667-33.49333333 80.96L818.02666667 478.82666667c-22.29333333 22.29333333-51.62666667 33.38666667-80.96 33.38666666z m0-395.2c-16.42666667 0-32 6.4-43.62666667 18.02666667L583.89333333 244.69333333c-24 24-24 63.14666667 0 87.14666667l109.65333334 109.65333333c24 24 63.14666667 24 87.14666666 0l109.65333334-109.65333333c11.62666667-11.62666667 18.02666667-27.09333333 18.02666666-43.62666667 0-16.42666667-6.4-31.89333333-18.02666666-43.62666666L780.69333333 135.04c-11.73333333-11.62666667-27.2-18.02666667-43.62666666-18.02666667z" fill="#333333" p-id="1405"></path></svg>