<?xml version="1.0" standalone="no"?><!DOCTYPE svg PUBLIC "-//W3C//DTD SVG 1.1//EN" "http://www.w3.org/Graphics/SVG/1.1/DTD/svg11.dtd"><svg t="1599448099282" class="icon" viewBox="0 0 1088 1024" version="1.1" xmlns="http://www.w3.org/2000/svg" p-id="2242" xmlns:xlink="http://www.w3.org/1999/xlink" width="212.5" height="200"><defs><style type="text/css"></style></defs><path d="M570.021875 585.434375h14.90625a14.90625001 14.90625001 0 0 1 14.9625 14.9625v239.0625a14.90625001 14.90625001 0 0 1-14.93437499 14.90625h-14.9625a14.90625001 14.90625001 0 0 1-14.90625001-14.90625v-239.0625a14.90625001 14.90625001 0 0 1 14.90625001-14.9625z m-74.72812499 0h14.93437499a14.90625001 14.90625001 0 0 1 14.9625 14.9625v239.0625a14.90625001 14.90625001 0 0 1-14.9625 14.90625h-14.90625a14.90625001 14.90625001 0 0 1-14.9625-14.90625v-239.0625a14.90625001 14.90625001 0 0 1 14.93437499-14.9625zM151.634375 152.140625a29.8125 29.8125 0 0 0-29.86875 29.896875 29.896875 29.896875 0 1 0 29.896875-29.896875z m0 104.709375a74.70000001 74.70000001 0 1 1 0-149.4 74.70000001 74.70000001 0 0 1 0 149.4z m209.19375 448.115625l-164.36249999-89.63437499v-253.99687502S192.21874999 331.4375 151.6625 331.4375c-36.675 0-44.83125002 29.896875-44.83125001 29.89687501v224.09999999s-2.53125001 23.23125002 14.93437501 29.89687501l224.12812499 104.59687499v179.296875h14.93437501V704.9375z m44.83125 14.9625v179.296875s-3.346875 47.925-59.76562501 44.803125C302.66562499 941.609375 301.0625 899.225 301.0625 899.225v-149.428125l-194.23125001-89.634375S62.5625 643.484375 62 600.396875V346.34374999s20.559375-58.95 89.6625-59.76562499a89.915625 89.915625 0 0 1 89.634375 59.76562501v239.06249998l134.465625 74.728125s28.85625001 10.209375 29.896875 59.765625zM540.125 107.196875a29.8125 29.8125 0 0 0-29.896875 29.78437499 29.86875001 29.86875001 0 0 0 59.79375 0A29.8125 29.8125 0 0 0 540.125 107.196875z m0 104.25937499a74.5875 74.5875 0 0 1-74.7-74.475A74.559375 74.559375 0 0 1 540.125 62.61874999a74.559375 74.559375 0 0 1 74.7 74.36250002A74.5875 74.5875 0 0 1 540.125 211.45624999z m59.765625 104.11875001S597.246875 284.890625 540.125 285.81874999c-61.59375001 0.90000001-59.765625 29.75625001-59.765625 29.75625001v180.225h119.53125V315.575z m164.3625 225.16874999H315.96874998s-14.93437499-2.53125001-14.93437498-20.5875c0-22.50000001 14.93437499-24.35625001 14.93437501-24.35624999h119.53125v-195.1875S434.965625 241.690625 540.125 241.128125c96.440625-0.5625 104.596875 59.540625 104.596875 59.54062499v195.15937501h119.53125s14.93437499 5.7375 14.934375 21.9375c0 15.1875-14.93437499 23.00625001-14.934375 23.00625zM928.5875 152a29.8125 29.8125 0 1 0 0 59.540625c16.453125 0 29.896875-13.33125001 29.896875-29.78437501 0-16.425-13.44375001-29.75625001-29.896875-29.75624999z m0 104.11875001a74.559375 74.559375 0 0 1-74.7-74.36250002 74.559375 74.559375 0 0 1 74.728125-74.3625 74.559375 74.559375 0 0 1 74.7 74.3625 74.559375 74.559375 0 0 1-74.728125 74.3625z m44.83125001 327.57187499v-223.3125s-8.15625001-29.784375-44.71875002-29.78437501c-40.66875001 0-44.803125 29.784375-44.80312499 29.78437501v253.06875l-164.36250001 89.325v193.52812501h14.93437502v-178.59375002l224.15624999-104.14687499c17.2125-6.75 14.79375001-29.86875001 14.79375001-29.86875z m44.83124999 14.821875c-0.5625 43.003125-44.83125002 59.540625-44.83125001 59.540625L779.1875 747.378125v148.8375s-1.603125 42.30000001-44.83125001 44.60625c-56.41875001 3.09375001-59.765625-44.60625001-59.76562499-44.60625v-178.48125001c1.040625-49.415625 29.896875-59.540625 29.896875-59.54062498l134.465625-74.36250002v-238.24687499s18.05625001-60.35625001 89.6625-59.54062499C997.690625 286.83124999 1018.25 345.584375 1018.25 345.584375v252.95625z" p-id="2243" fill="#333333"></path></svg>