<?xml version="1.0" standalone="no"?><!DOCTYPE svg PUBLIC "-//W3C//DTD SVG 1.1//EN" "http://www.w3.org/Graphics/SVG/1.1/DTD/svg11.dtd"><svg t="1599448037507" class="icon" viewBox="0 0 1024 1024" version="1.1" xmlns="http://www.w3.org/2000/svg" p-id="1255" xmlns:xlink="http://www.w3.org/1999/xlink" width="200" height="200"><defs><style type="text/css"></style></defs><path d="M107.29869717 491.5347831V182.49048477C107.29869717 69.35819785 169.84337627 62 230.08861865 62h505.8760834c94.73679404 0 124.16958369 32.19211406 124.1695837 122.78992237V471.29973945a30.81245273 30.81245273 0 1 1-61.6249046 0V184.78992237c0-45.98873437-15.17628252-61.1650169-62.5446791-61.16501778h-505.8760834c-51.04749551 0-61.62490459 6.89831016-61.62490459 61.16501778v614.40949687a56.56614346 56.56614346 0 0 0 61.62490459 61.62490459H456.81308193a30.81245273 30.81245273 0 0 1 0 61.62490459H206.63436377a96.57634307 96.57634307 0 0 1-93.81701866-68.06332793 119.11082344 119.11082344 0 0 1-5.51864794-35.87121299V491.5347831z m0 0" fill="#333333" p-id="1256"></path><path d="M705.15224932 961.99954033a211.08829307 211.08829307 0 1 1 211.54817988-210.62840537 211.08829307 211.08829307 0 0 1-211.54817988 210.62840537z m0-367.90987851a158.20124766 158.20124766 0 1 0 157.74136084 156.36169863 158.20124766 158.20124766 0 0 0-157.74136084-156.36169863z m0-12.8768458" fill="#333333" p-id="1257"></path><path d="M704.2324748 734.35530254a18.85538144 18.85538144 0 0 0 9.19774688 14.25650801c10.57740908 11.03729677 48.74805878 45.98873437 58.86558017 58.40569336a24.3740294 24.3740294 0 0 1 0 39.55031191 34.03166396 34.03166396 0 0 1-39.55031191 0l-77.26107392-79.10062382a20.23504365 20.23504365 0 0 1-5.05876114-14.25650802V669.05129902a28.05312832 28.05312832 0 0 1 27.59324063-26.67346611 26.67346612 26.67346612 0 0 1 26.21357929 28.97290284m-11.95707128 69.44299013M667.90137412 276.3075043a30.81245273 30.81245273 0 1 1 0 61.62490458h-367.90987852a30.81245273 30.81245273 0 1 1 0-61.62490458z m0 0M420.48198125 460.72233037a30.81245273 30.81245273 0 1 1 0 61.6249046H299.07172109a30.81245273 30.81245273 0 1 1 0-61.6249046h121.41026016z m-59.78535557 0" fill="#333333" p-id="1258"></path></svg>