<?xml version="1.0" standalone="no"?><!DOCTYPE svg PUBLIC "-//W3C//DTD SVG 1.1//EN" "http://www.w3.org/Graphics/SVG/1.1/DTD/svg11.dtd"><svg t="1599448078715" class="icon" viewBox="0 0 1024 1024" version="1.1" xmlns="http://www.w3.org/2000/svg" p-id="1865" xmlns:xlink="http://www.w3.org/1999/xlink" width="200" height="200"><defs><style type="text/css"></style></defs><path d="M667.87555555 267.99217778h138.76565334c1.45521778 0 2.90702222 0.03299555 4.36451556 0.10922667 5.91872 0.30606222-7.13955555-1.26293333-1.38353778-0.16156445 1.50528 0.28785778 2.97756445 0.72931555 4.44416 1.16622222 1.98769778 0.59505778 6.85397333 2.97870222-1.16508445-0.65308444 1.82158222 0.82602667 3.53848889 1.85799111 5.23377778 2.91271111 1.74421333 1.08771555 5.71278222 4.60117333-0.97507555-0.89543111 1.15029333 0.94549333 2.20501333 1.99907555 3.25404444 3.04924444 1.39036445 1.39150222 4.76956445 5.76056889-0.59733334-1.22311111 0.91136 1.18442667 1.70097778 2.45304889 2.48945778 3.72053334 0.79303111 1.27317333 1.45863111 2.62144 2.12195556 3.96515555-3.76945778-7.63904-1.36419555-3.27907555-0.65308444-1.16622222 0.48924445 1.45294222 0.82944 2.95139555 1.16736 4.44529777 1.10364445 4.86058667-0.48924445-7.67658667-0.07964445 0.20138667 0.05575111 1.07292445 0.02616889 2.16405333 0.02616889 3.23925333V876.70442667c0 1.41539555-0.03527111 1.77720889-0.11036444 3.18691555-0.30606222 5.91872 1.26293333-7.13841778 0.16384-1.38353777-0.50403555 2.63395555-4.49991111 12.07978667-0.51427556 3.27907555-0.61895111 1.36533333-1.37216 2.66808889-2.12195556 3.96401778-1.11388445 1.92512-5.68547555 7.33866667 0.10581334 0.29240889-1.60085333 1.94787555-9.46176 8.52764445-1.82499556 2.65671111-2.37568 1.82613333-5.00394667 3.29159111-7.68455111 4.61368889 8.46279111-4.17678222-0.49152-0.11832889-3.27907555 0.51427555-5.71619555 1.29820445 7.28519111-0.67242667 1.38353777-0.16384-0.88519111 0.07623111-2.30855111 0.11036445-3.19488 0.11036445H216.20736c-1.60085333 0-3.18350222-0.10808889-4.77752889-0.24462222 9.73482667 0.83968-0.19000889-0.43235555-2.93432889-1.35509334-5.41582222-1.82385778 6.35676445 2.98894222 1.25952 0.47331556-1.34371555-0.66218667-2.61688889-1.45521778-3.88551111-2.24824889-1.74421333-1.08771555-5.71278222-4.60231111 0.97393778 0.89543111-1.53258667-1.25838222-2.91612445-2.68743111-4.27008-4.13468444-3.84227555-4.10055111 4.02659555 5.66840889 0.74410666 1.09795555-0.87381333-1.21287111-1.62247111-2.51107555-2.3699911-3.80359111-1.00693333-1.74193778-3.09816889-6.86193778 0.29696 1.35623111-0.58140445-1.40629333-1.01831111-2.86833778-1.45294223-4.32355555-0.44259555-1.47569778-0.73272889-2.99121778-1.02058667-4.50218667 1.65888 8.67441778 0.49038222 3.61813333 0.37091556 1.31754667-0.02958222-0.56547555-0.02730667-1.13436445-0.02730666-1.70211556v-2.61802667-41.63128889-184.38144-219.8528-136.09301333-6.96433778c0-1.59175111 0.10922667-3.16643555 0.24462222-4.75249777-0.76003555 8.8064-0.45738667 3.66478222 0.04323555 1.45066666 0.33792-1.48935111 0.82716445-2.93888 1.31185778-4.38499556 1.82385778-5.41696-2.98780445 6.35676445-0.47331555 1.25838223 1.17077333-2.37340445 7.39214222-10.25934222 1.35168-2.91043556 0.94549333-1.15029333 2.00021333-2.20501333 3.05038222-3.25404444 5.27246222-5.27246222-3.91054222 2.52586667-0.01251556-0.27192889 2.09806222-1.50528 11.43808-5.78787555 2.44508444-2.07189334 2.83306667-1.17077333 5.82314667-1.90122667 8.82460445-2.47694222-9.03736889 1.73056-1.68049778 0.34474667 1.25610667 0.34474667h136.69376c15.50677333 0 28.44444445-12.93880889 28.44444444-28.44444445s-12.93767111-28.44444445-28.44444444-28.44444444H227.45088c-17.23278222 0-33.55648 1.40174222-49.02684445 10.35150222C155.84824889 234.51192889 142.22222222 259.88437333 142.22222222 285.70510222v590.26432c0 26.25422222 13.35864889 49.10193778 34.93205333 63.54944 12.20039111 8.17038222 27.29756445 11.14225778 41.75303112 11.14225778h582.20430222c2.77048889 0 5.53984 0.02048 8.30919111-0.02730667 18.88369778-0.32540445 36.50901333-8.31260445 50.16689778-21.11260444 13.87975111-13.00707555 20.48113778-31.10343111 22.08085333-49.63328 0.8192-9.48451555 0.11150222-19.29329778 0.11150222-28.79260444V684.02517333 461.81262222 303.68540445c0-19.36611555 0.06712889-37.02101333-9.60170666-55.0866489-12.98204445-24.25628445-39.84952889-37.49546667-66.63623112-37.49546666H667.87896889c-15.50563555 0-28.44444445 12.93880889-28.44444444 28.44444444s12.93539555 28.44444445 28.4410311 28.44444445z" p-id="1866" fill="#333333"></path><path d="M622.36444445 135.34321778h-20.48l28.44444444 28.44444444c0-7.05308445 0.36181333-14.21084445-0.24462222-21.24572444-1.61223111-18.66865778-9.22396445-36.14492445-23.03089778-49.08145778-13.78986667-12.92174222-31.86346667-19.79733333-50.68003556-20.12273778-3.39854222-0.05916445-6.80391111 0-10.20586666 0h-52.01692445c-14.22677333 0-28.56618667-0.75093333-42.66666667 1.44725333-25.90833778 4.0448-45.66243555 23.44049778-55.34833777 46.88327112-5.51367111 13.35068445-4.73998222 27.98250667-4.73998223 42.11939555l28.44444445-28.44444444h-20.15914667c-18.24312889 0-34.78983111 6.73792-48.73216 18.19534222-12.36650667 10.16490667-21.62346667 26.05738667-24.09472 41.89297778-1.28910222 8.25344-1.44952889 15.92206222-1.44952888 24.16867555v44.18787556c0 34.27100445 25.55335111 67.24039111 60.08945777 72.63004444 9.49589333 1.48138667 18.42062222 1.44839111 27.94040889 1.44839112h150.10133334c20.13184 0 40.29667555 0.31857778 60.42624-0.02730667 18.88483555-0.32540445 36.50901333-8.31260445 50.16689777-21.11260445 13.87975111-13.00707555 20.48113778-31.10343111 22.08085333-49.63441778 1.24131555-14.36103111 0.11036445-29.23633778 0.11036445-43.6371911v-13.40416c0-11.81582222-2.78300445-22.51776-7.60945778-33.17191112-11.57916445-25.57610667-38.85283555-41.0624-66.34609777-41.53571555-15.50677333-0.26737778-28.44444445 13.14133333-28.44444445 28.44444444 0 15.70816 12.94449778 28.17706667 28.44444445 28.44444445 1.59288889 0.02616889 3.16302222 0.10808889 4.75249777 0.24462222-8.80526222-0.76003555-3.66364445-0.45852445-1.44952889 0.04323556 1.49048889 0.33792 2.93888 0.82602667 4.38499556 1.31072 5.41582222 1.82499555-6.35790222-2.98780445-1.25952-0.47331556 2.37340445 1.17077333 10.26048 7.39214222 2.91043556 1.35168 1.15029333 0.94435555 2.20501333 1.99793778 3.25404444 3.04924444 5.27132445 5.27132445-2.52586667-3.90940445 0.27192889-0.01365333 1.50528 2.09806222 5.78673778 11.43808 2.07189333 2.44736 1.16849778 2.83079111 1.90122667 5.82200889 2.47580444 8.82346667-1.77834667-9.28995555-0.34360889-0.44828445-0.34360888 2.62712888v52.23651556c0 1.19011555-0.04778667 2.02638222-0.11150222 3.21308444-0.30606222 5.91872 1.26293333-7.13841778 0.16384-1.3824-0.28785778 1.50528-0.73045333 2.97756445-1.16736 4.44416-2.17656889 7.2704 2.12423111-4.14833778-0.01251556 0.18090667-1.17077333 2.37340445-7.39100445 10.26048-1.35168 2.91157333-1.59971555 1.94787555-9.46176 8.52764445-1.82499556 2.65671112-2.37568 1.82499555-5.00394667 3.29045333-7.68455111 4.61141333 7.63790222-3.76945778 3.27793778-1.36305778 1.16508445-0.65308445-1.94332445 0.65422222-3.95491555 1.07406222-5.96309334 1.45863112 9.07832889-1.73624889 1.97632-0.34360889-0.768-0.34360889H415.25248c-6.34424889 0-12.73400889 0.21731555-19.07370667-0.11036445-5.91872-0.30606222 7.13728 1.26293333 1.3824 0.16270222-1.50641778-0.28785778-2.97756445-0.73045333-4.44529778-1.16736-1.98769778-0.59505778-6.85397333-2.97870222 1.16736 0.65308445-1.36760889-0.61895111-2.66922667-1.37216-3.96515555-2.12195555-1.29251555-0.74752-2.50766222-1.62019555-3.72053333-2.48945778 6.93930667 4.98119111 2.76366222 2.04003555 1.22311111 0.59619555-1.08544-1.01831111-2.06734222-2.13788445-3.04924445-3.25290667 5.86865778 6.68558222 1.35736889 1.71804445 0.10467556-0.29354666-0.79303111-1.27317333-1.45863111-2.62144-2.12195556-3.96401778 3.76945778 7.63790222 1.36419555 3.27793778 0.65308445 1.16508444-0.48924445-1.45180445-0.82944-2.95139555-1.16622223-4.44416-1.29820445-5.71619555 0.67128889 7.28519111 0.16156445 1.3824-0.18887111-2.18680889-0.10922667-4.42254222-0.10922667-6.61617777v-47.74456889c0-1.67822222-0.00113778-3.35416889 0.02616889-5.03239111 0.03640889-2.13447111 1.03879111-7.71413333-0.37091555 1.31754667 0.23779555-1.52234667 0.63146667-3.01511111 1.02058666-4.50332445 0.38684445-1.47114667 0.9216-2.89905778 1.45408-4.32128-3.19488 8.52764445-0.71452445 2.07758222 0.45056 0.06144 0.74752-1.29251555 1.62019555-2.50766222 2.48945778-3.72053333-4.98232889 6.93930667-2.03889778 2.7648-0.59619556 1.22424888 1.01717333-1.08657778 2.13674667-2.06848 3.25404445-3.04924444-6.30101333 5.53073778-2.80462222 2.11968-0.97507555 0.89543111 1.24472889-0.83399111 2.56682667-1.54168889 3.8855111-2.24824889 5.01191111-2.68060445-6.61048889 2.47808-1.25838222 0.47331556 1.43018667-0.53589333 2.91043555-0.92501333 4.38499556-1.31072 7.5264-1.97859555-4.94592 0.25827555 0.11832889-0.17863111 7.80288-0.67356445 15.83786667-0.10922667 23.66236444-0.10922667 15.50563555 0 28.44444445-12.93880889 28.44444445-28.44444444 0-7.05308445-0.36181333-14.21084445 0.24462222-21.24458667-0.84081778 9.73596445 0.43121778-0.19000889 1.35395556-2.93432889 1.82499555-5.41696-2.98780445 6.35676445-0.47331556 1.25838222 0.66332445-1.34371555 1.45635555-2.61688889 2.24824889-3.88664888 1.08771555-1.74421333 4.60117333-5.71278222-0.89543111 0.97621333 0.94549333-1.14915555 1.99907555-2.20501333 3.04924444-3.25404445 1.39150222-1.39036445 5.76056889-4.76956445-1.22311111 0.59733334 1.58151111-1.21400889 3.29386667-2.24483555 5.01418667-3.24039112 1.74193778-1.00693333 6.8608-3.09816889-1.35623112 0.29809778 1.40515555-0.58254222 2.86606222-1.01944889 4.32128-1.45408 1.47569778-0.44145778 2.99121778-0.73159111 4.50332445-1.01944888-8.67441778 1.66001778-3.61813333 0.49038222-1.31868445 0.36977777 1.37443555-0.07168 2.77048889-0.02616889 4.1472-0.02616889h87.31420445c2.88199111 0 10.68828445 1.10023111 1.44042667-0.34360888 3.02762667 0.47217778 5.96309333 1.40288 8.82574222 2.47580444-8.06115555-3.01852445-3.26542222-1.31868445-1.35623111-0.29809778 1.75672889 0.94094222 3.39740445 2.07985778 5.01418667 3.24039111-7.55825778-5.4272-0.83740445-0.25713778 0.8442311 1.53941333 3.84227555 4.10055111-4.02773333-5.66840889-0.74410666-1.09795555 0.87153778 1.21514667 1.62247111 2.51107555 2.36885333 3.80359111 1.00807111 1.74193778 3.09930667 6.86193778-0.29696-1.35509333 0.58140445 1.40515555 1.01944889 2.86606222 1.45294223 4.32128 0.44373333 1.47569778 0.73386667 2.99235555 1.02058666 4.50332444-1.66001778-8.67441778-0.49152-3.61585778-0.37091556-1.31754667 0.30947555 6.00405333 0.02730667 12.08092445 0.02730667 18.09066667 0 15.50563555 12.93767111 28.44444445 28.44444445 28.44444445h20.48c15.50563555 0 28.44444445-12.93880889 28.44444444-28.44444445s-12.93653333-28.44444445-28.44330666-28.44444444zM552.41045333 523.22759111a137.56643555 137.56643555 0 0 1 6.7584 7.37052444c1.17532445 1.38012445 4.76501333 6.17358222-0.36750222-0.60416 0.98417778 1.29934222 1.91146667 2.63964445 2.83761778 3.9788089 3.95605333 5.71960889 7.24992 11.87498667 10.08412444 18.21582222-3.95605333-8.84963555 0.32881778 1.30616889 1.0752 3.54076444 0.99555555 2.98211555 1.80451555 6.02225778 2.54976 9.07491556 0.74183111 3.04241778 1.29592889 6.12807111 1.78517334 9.21941333-1.61792-10.21952 0.04551111 2.17998222 0.17294222 4.86627555 0.29809778 6.23729778-0.04323555 12.49166222-0.76458667 18.68913778 1.18897778-10.21041778-0.32199111 0.80099555-0.84309333 3.2256-0.77141333 3.584-1.78744889 7.11111111-2.90133334 10.60181334-0.70542222 2.21411555-4.92088889 12.48256-1.07406222 3.54190222-1.26065778 2.92864-2.70563555 5.77536-4.20864 8.58680889-1.51893333 2.84103111-3.21763555 5.5808-4.97208888 8.28074667-0.88632889 1.36305778-1.82954667 2.68743111-2.77390223 4.00952888-2.86606222 4.01976889 4.38954667-5.31683555-0.59847111 0.71224889-4.25415111 5.13934222-9.05671111 9.80536889-14.12892444 14.12892445-1.38012445 1.17532445-6.17358222 4.76501333 0.60416-0.36750222-1.29934222 0.98304-2.63850667 1.91146667-3.97880889 2.83761777-3.09475555 2.14016-6.33742222 4.05617778-9.62901333 5.87548445-2.78983111 1.54282667-5.67637333 2.90816-8.5868089 4.20864 8.84963555-3.95605333-1.30616889 0.32768-3.54076444 1.07406222-2.98211555 0.99669333-6.02225778 1.80565333-9.07491556 2.54976-1.52234667 0.37205333-3.05834667 0.68039111-4.59434666 0.98872889-2.10830222 0.42211555-9.87818667 1.47228445-0.15928889 0.20593777-6.19178667 0.80668445-12.45411555 0.97735111-18.68913778 0.76572445-3.12092445-0.10695111-6.23160889-0.40391111-9.33205333-0.76572445 10.29347555 1.19921778-2.14357333-0.59505778-4.75363556-1.19466666-3.06403555-0.70314667-6.08028445-1.59630222-9.07491555-2.54976-2.21411555-0.70656-12.48256-4.92202667-3.54190223-1.0752-6.38862222-2.74773333-12.44615111-6.21568-18.21582222-10.08412444-1.35281778-0.90794667-2.66581333-1.87278222-3.97880888-2.83761778 6.81528889 5.00849778 2.02183111 1.54055111 0.60416 0.36750222-2.56910222-2.12650667-4.99598222-4.41912889-7.37052445-6.7584-2.37568-2.34154667-4.59662222-4.83328-6.7584-7.37052444-1.17646222-1.38012445-4.76615111-6.17358222 0.36636445 0.60416-1.30958222-1.73056-2.53269333-3.52483555-3.74101334-5.32707556-3.57148445-5.32593778-6.56725333-11.02051555-9.18072889-16.86755556 3.95605333 8.84963555-0.32881778-1.30616889-1.0752-3.54190222-1.16167111-3.47704889-2.08099555-7.03032889-2.90133333-10.60181333-0.54727111-2.38364445-2.17770667-13.45877333-0.84309334-3.22446223-0.40277333-3.09703111-0.61667555-6.21454222-0.76458666-9.33205333-0.14904889-3.11637333-0.10581333-6.23957333 0-9.35822222 0.05347555-1.55875555 0.16952889-3.11523555 0.28672-4.67171555 0.16270222-2.15267555 1.28455111-9.87932445-0.11264-0.19342223 0.89656889-6.21340445 2.43143111-12.31872 4.33607111-18.29319111 0.70542222-2.21411555 4.92088889-12.48256 1.0752-3.54076444 1.47114667-3.42129778 3.18236445-6.73336889 4.98346667-9.98968889 1.56216889-2.82396445 3.30410667-5.54552889 5.10065778-8.22499556 0.90680889-1.35281778 1.87278222-2.66695111 2.83761777-3.97880889-5.00849778 6.81528889-1.54055111 2.02183111-0.36750222 0.60416 4.60458667-5.56373333 9.84291555-10.58133333 15.39982222-15.18023111 4.64327111-3.84341333-5.39192889 4.00384-0.55978667 0.45056 1.30958222-0.96256 2.66012445-1.86823111 4.0095289-2.77390222 2.67605333-1.79427555 5.46360889-3.41447111 8.28188444-4.97322667 2.79096889-1.54282667 5.67637333-2.90702222 8.58680889-4.20750222-7.98606222 3.56920889-2.72611555 1.17304889-0.92501333 0.48696889 1.96494222-0.74865778 3.96401778-1.40174222 5.96764444-2.04003555 2.99235555-0.95345778 6.04273778-1.72032 9.10222222-2.4223289 2.38364445-0.54727111 13.45991111-2.17770667 3.22446222-0.8442311 6.70833778-0.87381333 13.49632-1.01262222 20.24789334-0.69063112 2.45418667 0.11719111 13.50769778 1.57127111 3.30752 0.09898667 3.09930667 0.44714667 6.16789333 1.08544 9.21827555 1.78517333 3.06403555 0.70314667 6.08028445 1.59630222 9.07377778 2.55089778 1.50300445 0.47900445 2.98666667 1.02058667 4.46805333 1.56216889 7.31363555 2.67264-4.06300445-1.88871111 0.52451556 0.16156445 5.86524445 2.62144 11.43580445 5.86183111 16.76515556 9.4355911 1.35281778 0.90794667 2.66695111 1.87278222 3.97880888 2.83648-6.81528889-5.00736-2.02183111-1.54055111-0.60416-0.36636444 2.57251555 2.12650667 4.99825778 4.41912889 7.3728 6.7584 11.03644445 10.87943111 29.20903111 11.01824 40.22613334 0 10.89877333-10.89991111 11.03872-29.34670222 0-40.22613333-45.93436445-45.27445333-117.77820445-54.48362667-173.42691556-21.60981333-55.59068445 32.83854222-81.88586667 102.08028445-63.20128 163.63633777 18.68913778 61.57312 79.48515555 104.44913778 143.85834667 100.49649778 63.98407111-3.92874667 120.85930667-51.78709333 131.88096-115.74499555 7.97809778-46.29390222-5.97788445-93.16465778-39.10997333-126.77916445-10.88056889-11.03872-29.32622222-10.89991111-40.22613334 0-11.01824 11.01937778-10.87829333 29.19082667-0.00113778 40.22727111z" p-id="1867" fill="#333333"></path><path d="M555.84199111 687.5648l70.03704889 70.03704889c10.95907555 10.95907555 29.26819555 10.95907555 40.22613333 0s10.95907555-29.26819555 0-40.22613334l-70.03704888-70.03704888c-10.95907555-10.95907555-29.26819555-10.95907555-40.22613334 0s-10.95907555 29.26705778 0 40.22613333z" p-id="1868" fill="#333333"></path></svg>