<?xml version="1.0" standalone="no"?><!DOCTYPE svg PUBLIC "-//W3C//DTD SVG 1.1//EN" "http://www.w3.org/Graphics/SVG/1.1/DTD/svg11.dtd"><svg t="1612084011867" class="icon" viewBox="0 0 1024 1024" version="1.1" xmlns="http://www.w3.org/2000/svg" p-id="2223" xmlns:xlink="http://www.w3.org/1999/xlink" width="200" height="200"><defs><style type="text/css"></style></defs><path d="M754.025 703.14270833c99.375 0 180-80.56875 180-179.953125L760.4375 208.63020833v-26.4H541.446875v-69.46875h-63.515625v69.46875H258.9875v34.95L90.125 523.18958333c0 99.375 80.56875 180 180 180s180-80.56875 180-179.953125L296.91875 245.74583333h181.0125v615.4875H232.625v63.525h564.28125v-63.525H541.446875V245.74583333h185.728125L574.071875 523.18958333c0 99.384375 80.56875 179.953125 179.953125 179.953125zM352.409375 605.52083333a116.484375 116.484375 0 0 1-194.45625-50.803125h197.19375v-63.515625H180.3125l89.75625-162.646875 115.528125 209.34375a115.546875 115.546875 0 0 1-33.1875 67.621875zM836.375 605.52083333a116.484375 116.484375 0 0 1-194.45625-50.803125H830.46875v-63.515625H664.278125l89.746875-162.646875 115.528125 209.34375A115.546875 115.546875 0 0 1 836.375 605.52083333z" fill="#333333" p-id="2224"></path></svg>