<?xml version="1.0" standalone="no"?><!DOCTYPE svg PUBLIC "-//W3C//DTD SVG 1.1//EN" "http://www.w3.org/Graphics/SVG/1.1/DTD/svg11.dtd"><svg t="1599449091239" class="icon" viewBox="0 0 1024 1024" version="1.1" xmlns="http://www.w3.org/2000/svg" p-id="1289" xmlns:xlink="http://www.w3.org/1999/xlink" width="200" height="200"><defs><style type="text/css"></style></defs><path d="M788.05647031 179.6423525l-81.45882281-1e-8L706.5976475 138.08c0-12.08470594-9.23294156-21.96705844-20.75294156-21.96705844l-77.25176438 0C594.16470594 83.21882375 556.16 60.23529406 512.36705844 60.23529406c-44.69647031 0-82.19294156 22.56-96.33882282 55.96235344l-77.05411781 0c-11.46352969 0-20.80941187 9.76941187-20.80941187 21.96705844l0 41.5623525L236.73411781 179.72705844c-39.72705844 0-72 29.56235251-72 65.9576475l0 652.1223525c0 36.39529406 32.27294156 65.92941187 72 65.92941187L788.14117626 963.73647031c39.72705844 0 72-29.64705844 71.99999999-65.92941187l0-652.23529407c-0.08470594-36.2541178-32.32941188-65.92941187-72.08470594-65.92941187z m-428.35764656-19.53882281l71.60470594 0a21.17647031 21.17647031 0 0 0 20.52705843-18.55058813c2.76705844-18.38117625 26.06117625-37.32705844 60.53647032-37.32705937 34.39058812 0 57.76941187 18.94588219 60.45176531 37.32705937 1.58117625 10.67294156 10.2776475 18.55058813 20.52705844 18.55058813l71.60470593 0 0 89.36470594-305.22352968 0L359.72705844 160.10352969z m458.73882375 737.73176437c0 11.85882375-13.91999999 22.05176438-30.4376475 22.05176438L236.64941187 919.88705844c-16.43294156 0-30.35294156-10.08-30.35294157-22.05176438l1e-8-652.23529406c0-11.88705844 13.92-21.96705844 30.35294157-21.96705844l81.43058812 0L318.08 271.43529406c0 12.08470594 9.26117625 21.99529406 20.80941188 21.99529407l346.95529406 0c11.43529405 0 20.75294156-9.76941187 20.75294156-21.99529406L706.5976475 223.63294157l81.45882281-1e-8c16.5176475 0 30.4658822 10.08 30.46588219 21.96705844l0 652.23529406-0.084705 0z" p-id="1290" fill="#333333"></path><path d="M667.88705844 744.00941188l27.52941187-12.33882375c-16.63058813-45.09176437-38.1176475-94.30588219-64.57411781-147.67058813a1074.35294156 1074.35294156 0 0 0 60.73411781-152.38588219l-27.41647031-10.08c-19.08705844 59.40705844-40.65882375 113.19529406-64.5176475 161.25176438 27.47294156 56.8376475 50.17411781 110.48470594 68.24470594 161.22352968z" p-id="1291" fill="#333333"></path><path d="M583.09647031 745.33647031l27.86823563-12.33882281c-15.5576475-45.96705844-35.40705844-95.88705845-59.43529406-149.81647125a1040.38588219 1040.38588219 0 0 0 60.22588217-152.38588219l-27.86823561-10.08a1234.44705844 1234.44705844 0 0 1-63.19058813 161.28 1717.92 1717.92 0 0 1 62.4 163.34117625z m-177.17647031-231.10588219l20.80941187-21.99529406a542.62588219 542.62588219 0 0 0-73.24235343-68.58352969l-20.80941094 20.66823563c31.31294156 25.52470594 55.76470594 48.81882375 73.2423525 69.91058812z" p-id="1292" fill="#333333"></path><path d="M529.44941187 736.04705844c-13.83529406-44.47058812-32.72470594-95.66117625-56.61176437-153.34588219a1137.65647031 1137.65647031 0 0 0 57.4023525-152.49882375l-27.89647031-10.08c-18.24 59.83058812-38.45647031 113.5623525-60.70588219 161.25176531a2134.87058813 2134.87058813 0 0 1 60.33882281 166.95529407l27.47294156-12.28235344z" p-id="1293" fill="#333333"></path><path d="M604.66823563 780.40470594c-26.5976475 0-55.17176438-0.31058812-85.6376475-0.90352969-26.34352967-0.90352969-45.99529406-4.1223525-59.09647032-9.71294062-11.66117625-5.81647031-23.01176437-15.44470594-34.10823562-28.5176475a57.28941187 57.28941187 0 0 0-10.75764656-9.68470594l0-164.75294063L326.49411781 566.83294156l0 30.80470594 59.83058813 0 0 132.22588219c-17.16705844 7.65176437-37.04470594 30.49411781-59.43529407 68.47058812l22.41882375 21.62823469c23.3223525-41.5623525 40.00941188-62.45647031 50.31529407-62.45647031 5.81647031 0 11.46352969 3.86823564 17.0823525 11.40705937 13.52470594 16.46117625 28.91294156 27.24705844 46.10823562 32.47058813 16.91294156 4.63058813 39.72705844 7.3976475 68.24470594 7.87764654 37.10117625 0.59294156 62.93647031 0.87529407 77.36470594 0.87529408l87.67058812 0 7.4823525-32.10352875c-7.70823563 0.59294156-22.16470594 1.27058812-43.25647031 1.77882282l-55.65176438 0.59294156z" p-id="1294" fill="#333333"></path></svg>