<?xml version="1.0" standalone="no"?><!DOCTYPE svg PUBLIC "-//W3C//DTD SVG 1.1//EN" "http://www.w3.org/Graphics/SVG/1.1/DTD/svg11.dtd"><svg t="1599455644841" class="icon" viewBox="0 0 1024 1024" version="1.1" xmlns="http://www.w3.org/2000/svg" p-id="1479" xmlns:xlink="http://www.w3.org/1999/xlink" width="200" height="200"><defs><style type="text/css"></style></defs><path d="M197.97333333 957.952c-54.272 0-98.304-44.032-98.304-98.304V206.848c0-54.272 44.032-97.792 98.304-97.792H338.77333333v19.968c-4.096 0-7.68 3.584-7.68 7.68v17.408c0 1.536 0.512 2.56 1.024 3.584l8.704 14.848h-143.36c-18.944 0-34.304 15.36-34.304 33.792v652.8c0 18.944 15.36 34.304 34.304 34.304h528.896c18.944 0 34.304-15.36 34.304-34.304v-228.864l64-64v292.352c0 54.272-44.032 98.304-97.792 98.304H197.97333333z m563.2-751.104c0-18.944-15.36-33.792-34.304-33.792h-143.36l8.704-14.848c0.512-1.024 1.024-2.56 1.024-3.584v-17.408c0-4.096-3.584-7.68-7.68-7.68v-19.968h141.312c26.112 0 50.688 10.24 69.12 28.672 18.432 18.432 28.672 43.008 28.672 69.12v325.632l-64 64V206.848z" p-id="1480" fill="#333333"></path><path d="M305.49333333 642.048c-8.704 0-16.384-3.584-22.528-9.216l-38.912-38.912c-12.288-12.288-12.288-32.768 0-45.568 6.144-6.144 14.336-9.216 22.528-9.216 8.704 0 16.384 3.584 22.528 9.216l38.912 38.912c6.144 6.144 9.216 14.336 9.216 22.528 0 8.704-3.584 16.384-9.216 22.528-5.632 6.656-13.824 9.728-22.528 9.728zM439.63733333 404.48c-17.92 0-32.256-14.336-32.256-32.256s14.336-32.256 32.256-32.256h220.672c17.92 0 32.256 14.336 32.256 32.256s-14.336 32.256-32.256 32.256H439.63733333zM312.66133333 225.792c-25.088 0-45.568-20.48-45.568-45.568V110.08c0-25.088 20.48-45.568 45.568-45.568h299.52c25.088 0 45.056 20.48 45.568 45.056v70.656c0 25.088-20.48 45.568-45.568 45.568H312.66133333z m25.6-96.768c-4.096 0-7.68 3.584-7.68 7.68v17.408c0 1.536 0.512 2.56 1.024 3.584 1.536 2.048 4.096 3.584 6.656 3.584h247.296c3.072 0 5.12-1.536 6.656-3.584 0.512-1.024 1.024-2.56 1.024-3.584v-17.408c0-4.096-3.584-7.68-7.68-7.68H338.26133333z" p-id="1481" fill="#333333"></path><path d="M304.98133333 642.56c-8.704 0-16.384-3.584-22.528-9.216-12.288-12.288-12.288-32.768 0-45.568l70.144-70.144c6.144-6.144 14.336-9.216 22.528-9.216 8.704 0 16.384 3.584 22.528 9.216 6.144 6.144 9.216 13.824 9.216 22.528 0 8.704-3.072 16.896-9.216 23.04l-70.144 70.144c-6.144 5.632-13.824 9.216-22.528 9.216z m56.832-194.56c-8.704 0-16.896-3.584-22.528-9.216l-81.92-81.92c-12.288-12.288-12.288-32.768 0-45.568 6.144-6.144 14.336-9.216 22.528-9.216 8.704 0 16.384 3.584 22.528 9.216l81.92 81.92c12.288 12.288 12.288 32.768 0 45.568-6.144 6.144-13.824 9.216-22.528 9.216z" p-id="1482" fill="#333333"></path><path d="M522.06933333 880.64c-15.36 0-28.16-12.288-28.16-27.648 0-50.688 20.48-100.352 56.32-136.192l289.792-289.792c14.336-14.336 33.28-22.528 53.76-22.528s39.424 8.192 53.76 22.528c29.696 29.696 29.696 77.824 0 107.52l-169.472 169.472-119.808 120.32c-36.352 36.352-84.992 56.32-136.192 56.32z m371.712-411.648c-3.072 0-6.144 1.024-8.704 3.584l-107.008 107.008-197.12 197.632c-9.216 9.216-15.36 20.992-17.408 33.792v1.024h1.024c12.8-2.048 24.576-8.192 33.792-17.408l304.64-304.64c2.048-2.56 3.584-5.12 3.584-8.704 0-3.072-1.024-6.144-3.584-8.704-2.56-2.56-5.632-3.584-9.216-3.584z m-449.024 138.24c-17.92 0-32.256-14.336-32.256-32.256s14.336-32.256 32.256-32.256H615.25333333c17.92 0 32.256 14.336 32.256 32.256s-14.336 32.256-32.256 32.256H444.75733333zM279.89333333 448c-8.704 0-16.384-3.584-22.528-9.216-6.144-6.144-9.216-14.336-9.216-22.528 0-8.704 3.584-16.384 9.216-22.528l81.92-81.92c6.144-6.144 14.336-9.216 22.528-9.216 8.704 0 16.384 3.584 22.528 9.216 6.144 6.144 9.216 14.336 9.216 23.04 0 8.704-3.584 16.384-9.216 22.528l-81.92 81.92c-5.632 5.632-13.824 8.704-22.528 8.704z" p-id="1483" fill="#333333"></path></svg>