<?xml version="1.0" standalone="no"?><!DOCTYPE svg PUBLIC "-//W3C//DTD SVG 1.1//EN" "http://www.w3.org/Graphics/SVG/1.1/DTD/svg11.dtd"><svg t="1599641143556" class="icon" viewBox="0 0 1024 1024" version="1.1" xmlns="http://www.w3.org/2000/svg" p-id="1307" xmlns:xlink="http://www.w3.org/1999/xlink" width="200" height="200"><defs><style type="text/css"></style></defs><path d="M512 141.09090875A370.90909125 370.90909125 0 1 1 141.09090875 512 370.90909125 370.90909125 0 0 1 512 141.09090875m0-65.45454469a436.36363594 436.36363594 0 1 0 436.36363594 436.36363594A436.36363594 436.36363594 0 0 0 512 75.63636406z" p-id="1308" fill="#ffffff"></path><path d="M512 337.45454563a32.72727281 32.72727281 0 0 0-32.72727281 32.72727281v283.63636312a32.72727281 32.72727281 0 0 0 65.45454562 0v-283.63636312A32.72727281 32.72727281 0 0 0 512 337.45454563z" p-id="1309" fill="#ffffff"></path><path d="M653.81818156 479.27272719h-283.63636312a32.72727281 32.72727281 0 0 0 0 65.45454562h283.63636312a32.72727281 32.72727281 0 0 0 0-65.45454562z" p-id="1310" fill="#ffffff"></path></svg>