<?xml version="1.0" standalone="no"?><!DOCTYPE svg PUBLIC "-//W3C//DTD SVG 1.1//EN" "http://www.w3.org/Graphics/SVG/1.1/DTD/svg11.dtd"><svg t="1596700105718" class="icon" viewBox="0 0 1024 1024" version="1.1" xmlns="http://www.w3.org/2000/svg" p-id="3711" xmlns:xlink="http://www.w3.org/1999/xlink" width="200" height="200"><defs><style type="text/css"></style></defs><path d="M511.096 959.668c-247.885 0-448.834-200.949-448.834-448.834S263.21 62 511.096 62 959.93 262.949 959.93 510.834 758.981 959.668 511.096 959.668z m0-841.564c-216.899 0-392.73 175.831-392.73 392.73s175.831 392.73 392.73 392.73 392.73-175.831 392.73-392.73-175.831-392.73-392.73-392.73z m148.771 541.501c-10.957 10.952-28.72 10.952-39.677 0l-109.095-109.1L402 659.605c-10.957 10.952-28.72 10.952-39.677 0-10.952-10.957-10.952-28.72 0-39.677l109.1-109.095-109.1-109.095c-10.952-10.957-10.952-28.72 0-39.677 10.957-10.952 28.72-10.952 39.677 0l109.095 109.1 109.095-109.1c10.957-10.952 28.72-10.952 39.677 0 10.952 10.957 10.952 28.72 0 39.677l-109.1 109.095 109.1 109.095c10.952 10.958 10.952 28.72 0 39.677z" p-id="3712" fill="#ffffff"></path></svg>