<?xml version="1.0" standalone="no"?><!DOCTYPE svg PUBLIC "-//W3C//DTD SVG 1.1//EN" "http://www.w3.org/Graphics/SVG/1.1/DTD/svg11.dtd"><svg t="1599641564494" class="icon" viewBox="0 0 1024 1024" version="1.1" xmlns="http://www.w3.org/2000/svg" p-id="1337" xmlns:xlink="http://www.w3.org/1999/xlink" width="200" height="200"><defs><style type="text/css"></style></defs><path d="M614.65802133 968.54480107c-18.89861653 0-34.1276-15.2289824-34.1276-34.1276l0-511.91399253c0-8.44015893 3.11918933-16.69683627 8.80712214-22.93521494l222.74680533-250.08558186L211.73216853 149.48241174l223.11376854 250.26906346c5.5044512 6.23837867 8.62364053 14.3115744 8.62364053 22.75173334l0 308.0658048 54.3105888 43.85213013c14.6785376 11.92631147 16.88031787 33.39367253 5.137488 48.07221013s-33.39367253 16.88031787-48.07221013 5.137488L387.8746176 773.1367712c-8.07319573-6.42186027-12.66023893-16.32987307-12.66023893-26.60484906L375.21437973 435.34692907 110.08329707 137.92306454c-8.99060373-10.0914944-11.19238507-24.4030688-5.6879328-36.69634347 5.5044512-12.29327467 17.79772693-20.1829888 31.19189226-20.1829888l753.37593387 0c13.57764693 0 25.68744 7.88971413 31.19189227 20.3664704 5.5044512 12.29327467 3.11918933 26.78833067-5.87141547 36.69634347L648.78562027 435.53041067l0 498.88679147C648.78562027 953.31581867 633.55663787 968.54480107 614.65802133 968.54480107z" p-id="1338" fill="#647484"></path></svg>