<?xml version="1.0" standalone="no"?><!DOCTYPE svg PUBLIC "-//W3C//DTD SVG 1.1//EN" "http://www.w3.org/Graphics/SVG/1.1/DTD/svg11.dtd"><svg t="1605522741507" class="icon" viewBox="0 0 1024 1024" version="1.1" xmlns="http://www.w3.org/2000/svg" p-id="1907" xmlns:xlink="http://www.w3.org/1999/xlink" width="200" height="200"><defs><style type="text/css"></style></defs><path d="M647.20000039 87.7000001a100.0000002 100.0000002 0 0 1 99.99999932 100.00000019v649.29999991a100.0000002 100.0000002 0 0 1-99.99999932 100.00000019H333.50000029a100.0000002 100.0000002 0 0 1-100.00000019-100.00000019V187.70000029a100.0000002 100.0000002 0 0 1 100.00000019-100.00000019h313.7000001z m0 64.99999951H333.50000029a34.9999998 34.9999998 0 0 0-34.7000001 30.2500002L298.49999961 187.70000029v649.2999999a34.9999998 34.9999998 0 0 0 30.25000019 34.7000001l4.75000049 0.29999971h313.7000001a34.9999998 34.9999998 0 0 0 34.65-30.2500002l0.3499998-4.74999961V187.70000029a34.9999998 34.9999998 0 0 0-30.25000019-34.7000001L647.20000039 152.69999961z" p-id="1908" fill="#B6C6D6"></path><path d="M563.99999961 203.45000029v50.0000001h-149.99999941v-50.0000001z" p-id="1909" fill="#B6C6D6"></path><path d="M490.3499999 798.9999998m-50.0000001 1e-8a50.0000001 50.0000001 0 1 0 100.0000002 0 50.0000001 50.0000001 0 1 0-100.00000019 0Z" p-id="1910" fill="#B6C6D6"></path></svg>