<?xml version="1.0" standalone="no"?><!DOCTYPE svg PUBLIC "-//W3C//DTD SVG 1.1//EN" "http://www.w3.org/Graphics/SVG/1.1/DTD/svg11.dtd"><svg t="1605522797631" class="icon" viewBox="0 0 1024 1024" version="1.1" xmlns="http://www.w3.org/2000/svg" p-id="2073" xmlns:xlink="http://www.w3.org/1999/xlink" width="200" height="200"><defs><style type="text/css"></style></defs><path d="M679.48088889 924.63407445H344.51911111c-67.96325888 0-123.79022222-55.82696334-123.79022222-123.79022222V531.41807445c0-67.96325888 55.82696334-123.79022222 123.79022222-123.79022222H681.90814777c67.96325888 0 123.79022222 55.82696334 123.79022222 123.79022222V803.27111111c-2.42725888 65.536-58.25422222 121.36296334-126.2174811 121.36296334zM344.51911111 456.17303666c-41.26340779 0-75.24503666 33.98163001-75.24503666 75.24503779V803.27111111c0 41.26340779 33.98163001 75.24503666 75.24503666 75.24503666H681.90814777c41.26340779 0 75.24503666-33.98163001 75.2450378-75.24503666V531.41807445c0-41.26340779-33.98163001-75.24503666-75.2450378-75.24503779H344.51911111z" fill="#B6C6D6" p-id="2074"></path><path d="M315.392 456.17303666c-14.56355555 0-24.27259221-9.70903666-24.27259221-24.27259221v-152.91733334C291.11940779 179.4654811 390.63703666 99.36592555 512 99.36592555s220.88059221 80.09955555 220.88059221 179.61718556v148.06281444c0 14.56355555-9.70903666 24.27259221-24.27259221 24.27259335s-24.27259221-9.70903666-24.27259221-24.27259335v-148.06281444c0-72.81777778-77.67229667-131.072-172.33540779-131.072-94.66311111 0-172.33540779 58.25422222-172.33540779 131.072v152.91733334c0 14.56355555-12.13629667 24.27259221-24.27259221 24.27259221z" fill="#B6C6D6" p-id="2075"></path><path d="M458.60029667 715.88977778a53.39970333 53.39970333 0 1 0 106.79940666 0 53.39970333 53.39970333 0 1 0-106.79940666 0Z" fill="#B6C6D6" p-id="2076"></path><path d="M490.15466667 587.24503666H536.27259221v128.64474112h-46.11792554z" fill="#B6C6D6" p-id="2077"></path></svg>