<?xml version="1.0" standalone="no"?><!DOCTYPE svg PUBLIC "-//W3C//DTD SVG 1.1//EN" "http://www.w3.org/Graphics/SVG/1.1/DTD/svg11.dtd"><svg t="1611905562262" class="icon" viewBox="0 0 1024 1024" version="1.1" xmlns="http://www.w3.org/2000/svg" p-id="2343" xmlns:xlink="http://www.w3.org/1999/xlink" width="200" height="200"><defs><style type="text/css"></style></defs><path d="M290.375 765.125c-7.96875 0-15.5625-3.1875-21.1875-8.8125l-129.375-129.375c-11.71875-11.71875-11.71875-30.75 0-42.46875l373.6875-373.6875c8.34375-8.34375 31.40625-27.65625 66.75-27.65625 25.21875 0 48.9375 9.84375 66.75 27.65625l38.34375 38.34375c36.75 36.75 36.75 96.65625 0 133.5L645.125 422.9375C536.5625 531.40625 424.34375 643.53125 311.5625 756.3125c-5.625 5.625-13.21875 8.8125-21.1875 8.8125z m-86.90625-159.375l86.90625 86.90625c105.65625-105.65625 210.65625-210.5625 312.375-312.1875l40.21875-40.21875c13.40625-13.40625 13.40625-35.34375 0-48.65625L604.625 253.25c-6.46875-6.46875-15.09375-10.03125-24.375-10.03125-13.59375 0-22.6875 8.34375-24.375 10.03125L203.46875 605.75z" fill="#ffffff" p-id="2344"></path><path d="M122.65625 803.46875c-7.875 0-15.5625-3.09375-21.1875-8.8125-7.59375-7.59375-10.5-18.65625-7.78125-28.96875l44.625-166.40625c2.8125-10.3125 10.875-18.46875 21.1875-21.1875 10.3125-2.8125 21.375 0.1875 28.96875 7.78125l121.875 121.78125c7.59375 7.59375 10.5 18.65625 7.78125 28.96875-2.8125 10.3125-10.875 18.46875-21.1875 21.1875L130.4375 802.4375c-2.625 0.65625-5.15625 1.03125-7.78125 1.03125z m60.1875-138.46875L165.125 731l66.09375-17.71875-48.375-48.28125zM601.25 425c-7.78125 0-15.5625-3-21.375-9L466.15625 300.21875c-11.625-11.8125-11.4375-30.84375 0.375-42.46875 11.8125-11.625 30.84375-11.4375 42.46875 0.375L622.625 374c11.625 11.8125 11.4375 30.84375-0.375 42.46875-5.8125 5.625-13.40625 8.53125-21 8.53125zM897.21875 794.46875H408.96875c-16.59375 0-30-13.40625-30-30s13.40625-30 30-30h488.25c16.59375 0 30 13.40625 30 30s-13.40625 30-30 30z" fill="#ffffff" p-id="2345"></path><path d="M897.21875 666.96875H594.125c-16.59375 0-30-13.40625-30-30s13.40625-30 30-30h303.09375c16.59375 0 30 13.40625 30 30s-13.40625 30-30 30z" fill="#ffffff" p-id="2346"></path><path d="M896.28125 541.8125H712.25c-16.59375 0-30-13.40625-30-30s13.40625-30 30-30h184.03125c16.59375 0 30 13.40625 30 30s-13.40625 30-30 30z" fill="#ffffff" p-id="2347"></path></svg>