<?xml version="1.0" standalone="no"?><!DOCTYPE svg PUBLIC "-//W3C//DTD SVG 1.1//EN" "http://www.w3.org/Graphics/SVG/1.1/DTD/svg11.dtd"><svg t="1605522833110" class="icon" viewBox="0 0 1024 1024" version="1.1" xmlns="http://www.w3.org/2000/svg" p-id="2444" xmlns:xlink="http://www.w3.org/1999/xlink" width="200" height="200"><defs><style type="text/css"></style></defs><path d="M511.99952 937.45042438c-146.85173531 0-265.91765062-119.03417437-265.91765062-265.906755 0-59.72526656 19.94377594-114.67201219 53.18372156-159.05056407L299.26559188 299.27478781c0-117.47715094 95.25292406-212.72617125 212.73392812-212.72617125 117.48196406 0 212.73392813 95.24902125 212.73392813 212.72617125l0 213.2192775c33.23994656 44.37855094 53.18468156 99.3252975 53.18468156 159.05056407C777.91812969 818.41625 658.85221531 937.45042438 511.99952 937.45042438zM671.55068656 299.27478781c0-88.10762344-71.43993281-159.54462844-159.55116562-159.54462843-88.11123281 0-159.55116562 71.43604594-159.55116563 159.54462843l0 159.90726281c44.48398406-33.47170594 99.61526531-53.54417719 159.55116563-53.54417718 59.96180437 0 115.0671825 20.07247125 159.55116562 53.54417719L671.55068656 299.27478781zM677.91335281 538.59125094l-6.36266718 0 0-7.42728469c-38.97901031-44.26151062-95.92737469-72.34551-159.55116563-72.34551-117.48196406 0-212.73392813 95.24902125-212.73392812 212.72617125s95.25292406 212.72521219 212.73392812 212.72521219c117.48196406 0 212.73392813-95.24806219 212.73392813-212.72521219C724.73440812 621.22002875 707.1536075 575.02255062 677.91335281 538.59125094zM511.99952 777.907715c-14.69783719 0-26.59138125-11.89305656-26.59138125-26.59125094l0-106.36308562c0-14.69723531 11.89354406-26.59029187 26.59138125-26.59029188s26.59234031 11.8920975 26.59234031 26.59029188l0 106.36308562C538.59186125 766.01369844 526.69831719 777.907715 511.99952 777.907715z" fill="#333333" p-id="2445"></path></svg>