<?xml version="1.0" standalone="no"?><!DOCTYPE svg PUBLIC "-//W3C//DTD SVG 1.1//EN" "http://www.w3.org/Graphics/SVG/1.1/DTD/svg11.dtd"><svg t="1599647667384" class="icon" viewBox="0 0 1024 1024" version="1.1" xmlns="http://www.w3.org/2000/svg" p-id="1370" xmlns:xlink="http://www.w3.org/1999/xlink" width="200" height="200"><defs><style type="text/css"></style></defs><path d="M752 351.99999969v320.00000062c0 24-16.00000031 40.00000031-40.00000031 39.99999938s-40.00000031-16.00000031-39.99999938-39.99999938V351.99999969c0-24 16.00000031-40.00000031 39.99999938-39.99999938s40.00000031 16.00000031 40.00000031 39.99999938z m-199.99999969 0v320.00000062c0 24-16.00000031 40.00000031-40.00000031 39.99999938s-40.00000031-16.00000031-40.00000031-39.99999938V351.99999969c0-24 16.00000031-40.00000031 40.00000031-39.99999938s40.00000031 16.00000031 40.00000031 39.99999938zM351.99999969 351.99999969v320.00000062c0 24-16.00000031 40.00000031-39.99999938 39.99999938s-40.00000031-16.00000031-40.00000031-39.99999938V351.99999969c0-24 16.00000031-40.00000031 40.00000031-39.99999938s40.00000031 16.00000031 39.99999938 39.99999938zM891.99999969 132.00000031h-192c-16.00000031 0-31.99999969-12-31.99999969-32.00000062s16.00000031-28.00000031 36-27.99999938h220.00000031c16.00000031 0 28.00000031 12 27.99999938 31.99999969v220.00000031c0 16.00000031-12 28.00000031-31.99999969 27.99999938s-31.99999969-12-31.99999969-31.99999969V132.00000031zM132.00000031 891.99999969h192c16.00000031 0 31.99999969 12 31.99999969 32.00000062s-16.00000031 28.00000031-36 27.99999938H104c-19.99999969 0-31.99999969-12-31.99999969-31.99999969v-220.00000031c0-16.00000031 12-28.00000031 31.99999969-27.99999938s31.99999969 12 31.99999969 31.99999969v187.99999969z" fill="#333333" p-id="1371"></path><path d="M891.99999969 891.99999969h-192c-16.00000031 0-31.99999969 12-31.99999969 32.00000062s12 31.99999969 31.99999969 31.99999969h220.00000031c16.00000031 0 31.99999969-12 31.99999969-31.99999969v-220.00000031c0-16.00000031-12-31.99999969-31.99999969-31.99999969s-31.99999969 12-31.99999969 31.99999969v187.99999969zM132.00000031 132.00000031h192c16.00000031 0 28.00000031-12 27.99999938-28.00000031S339.99999969 72.00000031 320 72.00000031H104c-19.99999969 0-31.99999969 12-31.99999969 31.99999969v220.00000031c0 16.00000031 12 28.00000031 31.99999969 27.99999938s31.99999969-12 31.99999969-31.99999969V132.00000031z" fill="#333333" p-id="1372"></path></svg>