<?xml version="1.0" standalone="no"?><!DOCTYPE svg PUBLIC "-//W3C//DTD SVG 1.1//EN" "http://www.w3.org/Graphics/SVG/1.1/DTD/svg11.dtd"><svg t="1600328112843" class="icon" viewBox="0 0 1024 1024" version="1.1" xmlns="http://www.w3.org/2000/svg" p-id="1563" xmlns:xlink="http://www.w3.org/1999/xlink" width="200" height="200"><defs><style type="text/css"></style></defs><path d="M435.6626963 780.09078518c-94.42038518 0-183.25807408-36.77297778-250.00770371-103.5226074s-103.52260741-155.58731852-103.52260741-250.0077037 36.77297778-183.25807408 103.52260741-250.00770371 155.58731852-103.52260741 250.00770371-103.5226074c94.42038518 0 183.25807408 36.77297778 250.0077037 103.5226074s103.52260741 155.58731852 103.52260741 250.00770371-36.77297778 183.25807408-103.52260741 250.0077037-155.58731852 103.52260741-250.0077037 103.5226074z m0-646.5005037c-161.5341037 0-292.97019259 131.43608889-292.9701926 292.9701926S274.12859259 719.4093037 435.6626963 719.4093037c161.5341037 0 292.97019259-131.43608889 292.97019259-292.97019259S597.1968 133.59028148 435.6626963 133.59028148z" p-id="1564" fill="#ffffff"></path><path d="M629.88591408 663.55806815l42.90787555-42.90787556L953.58278163 901.44161185l-42.90787555 42.90787556z" p-id="1565" fill="#ffffff"></path></svg>