<?xml version="1.0" standalone="no"?><!DOCTYPE svg PUBLIC "-//W3C//DTD SVG 1.1//EN" "http://www.w3.org/Graphics/SVG/1.1/DTD/svg11.dtd"><svg t="1599704782608" class="icon" viewBox="0 0 1024 1024" version="1.1" xmlns="http://www.w3.org/2000/svg" p-id="1677" xmlns:xlink="http://www.w3.org/1999/xlink" width="200" height="200"><defs><style type="text/css"></style></defs><path d="M511.21821702 139.2292255a371.73388239 371.73388239 0 1 1-263.164745 108.87362238A371.70096543 371.70096543 0 0 1 511.21821702 139.2292255m0-48.92318097C278.59240012 90.30604453 90.125 278.89688345 90.125 511.35811472s188.45094123 421.10144604 421.09321702 421.10144605 421.09321702-188.45094123 421.09321618-421.10144605S743.84403308 90.30604453 511.21821702 90.30604453z m0 0" fill="#A4B1BE" p-id="1678"></path><path d="M516.23808868 728.1178432c-2.46878943 0-4.93757886-1.46481509-6.97844532-4.39444528a17.939871 17.939871 0 0 1-3.29171923-11.01080154q0-34.12690164 49.54037833-200.33404843 30.2673609-101.64006876 30.33319482-115.21018241c0-7.463974-2.69920981-13.45490304-7.94950186-17.73413937-5.2585219-4.40267514-12.96937518-6.58343931-22.86922165-6.58343848q-27.15668618 0-65.67803312 21.77472463t-85.38720418 73.24075883l20.57324688 15.9072344c27.52700427-26.78636728 45.137704-42.79235339 53.0872067-47.72993307 7.94950268-5.0198725 15.04315778-7.463974 21.2809661-7.463974 5.62883999 0 8.43503137 3.17650946 8.43503137 9.42254764 0 5.62061096-1.09449701 11.98185892-3.29171924 19.20718267q-70.30289877 227.49073462-70.20414789 286.11625864c0 12.22873819 3.17650946 21.63482611 9.53775742 28.48983262s15.04315778 10.27839441 25.9305205 10.27839358c12.4838465 0 28.62150128-5.62883999 48.18254397-16.87829096q29.55141184-16.95235556 93.67410719-77.33072076l-18.2690431-17.73413855c-41.14649377 38.67770435-66.77253012 57.96718067-76.67237575 57.96717984z m19.43760389-445.78934198a41.46743601 41.46743601 0 1 0 20.73783251-35.91265979 41.45920698 41.45920698 0 0 0-20.73783251 35.91265979z m1e-8 0" fill="#A4B1BE" p-id="1679"></path></svg>