<?xml version="1.0" standalone="no"?><!DOCTYPE svg PUBLIC "-//W3C//DTD SVG 1.1//EN" "http://www.w3.org/Graphics/SVG/1.1/DTD/svg11.dtd"><svg t="1600915385482" class="icon" viewBox="0 0 1024 1024" version="1.1" xmlns="http://www.w3.org/2000/svg" p-id="1690" xmlns:xlink="http://www.w3.org/1999/xlink" width="200" height="200"><defs><style type="text/css"></style></defs><path d="M506.43125 655.49375c-16.190625 0-29.30625-13.125-29.30625-29.30625v-46.359375c-1.2375-45.309375 32.55-70.14375 59.690625-90.121875 30.853125-22.678125 49.7625-38.26875 49.7625-71.428125 0-38.1-21.046875-78.7875-80.1375-78.7875-86.83125 0-89.334375 76.078125-89.334375 84.759375 0 16.18125-13.115625 29.30625-29.30625 29.30625-16.190625 0-29.30625-13.125-29.30625-29.30625 0-49.584375 30.928125-143.3625 147.946875-143.3625 95.315625 0 138.740625 71.2125 138.740625 137.390625 0 64.48125-42.5625 95.784375-73.65 118.640625-25.74375 18.946875-36.196875 28.059375-35.8125 42.103125l0.009375 47.15625c0 16.190625-13.115625 29.315625-29.296875 29.315625z" p-id="1691" fill="#1BA1F3"></path><path d="M512 932C280.41875 932 92 743.590625 92 512S280.41875 92 512 92s420 188.409375 420 420-188.41875 420-420 420z m0-781.396875c-199.275 0-361.396875 162.1125-361.396875 361.396875S312.725 873.396875 512 873.396875 873.396875 711.275 873.396875 512 711.275 150.603125 512 150.603125z" p-id="1692" fill="#1BA1F3"></path><path d="M507.125 732.509375m-36.196875 0a36.196875 36.196875 0 1 0 72.39375 0 36.196875 36.196875 0 1 0-72.39375 0Z" p-id="1693" fill="#1BA1F3"></path></svg>