<?xml version="1.0" standalone="no"?><!DOCTYPE svg PUBLIC "-//W3C//DTD SVG 1.1//EN" "http://www.w3.org/Graphics/SVG/1.1/DTD/svg11.dtd"><svg t="1600915510361" class="icon" viewBox="0 0 1024 1024" version="1.1" xmlns="http://www.w3.org/2000/svg" p-id="2104" xmlns:xlink="http://www.w3.org/1999/xlink" width="200" height="200"><defs><style type="text/css"></style></defs><path d="M689 633.4c-1.60000001-0.6-3.3-1.00000001-5-1.3-33.3-5.7-131.1-32.9-148.6-82.7-1.5-7.69999999-7.8-42.5-4.7-70.9 4.8-5.1 9.6-10.09999999 14.3-15 35.1-36.3 71.3-73.9 71.3-140.3 0-99.3-80.8-180.1-180.1-180.1s-180.1 80.8-180.1 180.1c0 60.00000001 30.8 94.7 60.6 128.3 8.29999999 9.3 16.8 18.9 24.7 29.2 2.9 3.8 5.4 15.2 2.9 34.9-2.2 17.09999999-7.1 31.6-7.1 31.7-0.1 0.2-0.2 0.5-0.2 0.7-16.1 50.7-115.5 78.4-149.1 84.1-1.69999999 0.3-3.4 0.7-5 1.3-28.5 9.7-41.6 27-47.5 39.9-5.8 12.4-6.2 23.4-6 28.6l0 45.2c0 16.29999999 12.1 29.7 27.8 31.7l0 41.5c0 1.69999999 0.1 2.9 0.2 3.5 0.1 0.7 0.7 8 1.4 55.7 0.3 17.49999999 14.5 31.5 32 31.5l490.5 0c17.49999999 0 31.7-14 32-31.5 0.7-47.60000001 1.3-55 1.40000001-55.7 0.10000001-0.6 0.19999999-1.8 0.19999999-3.5l0-41.5c15.69999999-2.1 27.8-15.5 27.8-31.7l0-44.69999999c0.6-16.89999999-7.1-53.2-53.7-69.00000001z m-38.4 185.5c-0.19999999 2.7-0.6 9-1 28L222 846.9c-0.4-19-0.8-25.3-1-28l0-39.8 429.6 0 0 39.8z m27.8-103.8L193.2 715.1l0-14s0-0.70000001 0.1-0.8c0.7-1.4 3.19999999-3.6 8.2-5.6 10.3-1.9 44.4-9 81.1-24 62.6-25.4 101.4-60.1 115.1-103.1 1.09999999-3.3 6.8-20.9 9.7-42.6 4.8-35.8-0.4-63.9-15.5-83.5-9.2-11.9-18.5-22.4-27.4-32.49999999-25.8-29.1-44.5-50.2-44.5-85.90000001 0-64 52.1-116.1 116.1-116.1 64 0 116.1 52.1 116.1 116.1 0 40.6-21.2 62.6-53.4 95.90000001-6.7 7-13.7 14.1-20.7 21.89999999-3.79999999 4.2-9.1 11.69999999-11 28.7-5.1 42.8 5.4 92.6 5.9 94.7 0.2 1 0.5 2 0.8 2.9 13.7 43.1 52.50000001 77.9 115.2 103.39999999 36.8 14.9 70.90000001 22 81.1 24.00000001 5.5 2.2 8.09999999 6.1 8.1 6.4l0 14.10000001z" p-id="2105" fill="#1BA1F3"></path><path d="M894.5 767.1l-64 0L830.5 655.2c-0.5-1.1-2.59999999-3.3-8.1-5.5-10.3-1.9-44.4-9-81.1-24-62.8-25.5-101.6-60.3-115.2-103.4-0.3-1.00000001-0.6-1.90000001-0.8-2.9-0.49999999-2.1-11-51.9-5.9-94.7 1.9-17 7.1-24.5 11-28.7 7-7.7 14-14.9 20.7-21.9 32.1-33.3 53.4-55.3 53.4-95.9 0-64-52.1-116.1-116.1-116.1l0-64.00000001c99.3 0 180.1 80.8 180.1 180.10000001 0 66.4-36.3 104-71.3 140.3-4.7 4.9-9.49999999 9.9-14.3 15-3.1 28.3 3.19999999 63.2 4.7 70.9 17.5 49.8 115.4 77.1 148.6 82.7 1.69999999 0.3 3.4 0.7 5 1.3 46.6 15.9 54.30000001 52.1 53.4 68.99999999l0 109.70000001z m-58.9-128.4c-2.20000001 3.3-3.40000001 6.6-4.1 9.3 0.9-3.3 2.3-6.5 4.1-9.3z" p-id="2106" fill="#1BA1F3"></path></svg>